<svg viewBox="0 0 446 386" xmlns="http://www.w3.org/2000/svg" font-family="Georgia, serif">
<line x1="194.8" y1="206.7" x2="151.3" y2="244.4" stroke="hsl(0,5%,62%)" stroke-width="1.9" stroke-linecap="round"/><polygon points="146.2,248.8 150.5,240.8 154.7,245.7" fill="hsl(0,5%,62%)"/>
<line x1="194.8" y1="206.7" x2="226.9" y2="339.3" stroke="hsl(0,5%,61%)" stroke-width="1.9" stroke-linecap="round"/><polygon points="228.5,345.9 223.4,338.4 229.7,336.8" fill="hsl(0,5%,61%)"/>
<line x1="194.8" y1="206.7" x2="88.8" y2="253.0" stroke="hsl(0,5%,61%)" stroke-width="1.9" stroke-linecap="round"/><polygon points="82.6,255.7 89.1,249.3 91.7,255.3" fill="hsl(0,5%,61%)"/>
<line x1="194.8" y1="206.7" x2="278.5" y2="203.2" stroke="hsl(0,5%,59%)" stroke-width="1.9" stroke-linecap="round"/><polygon points="285.3,202.9 276.9,206.5 276.7,200.0" fill="hsl(0,5%,59%)"/>
<line x1="194.8" y1="206.7" x2="393.7" y2="245.0" stroke="hsl(0,5%,54%)" stroke-width="1.9" stroke-linecap="round"/><polygon points="400.4,246.3 391.4,247.9 392.6,241.5" fill="hsl(0,5%,54%)"/>
<line x1="194.8" y1="206.7" x2="86.7" y2="177.1" stroke="hsl(0,5%,46%)" stroke-width="2.6" stroke-linecap="round"/><polygon points="78.0,174.8 89.7,173.8 87.6,181.5" fill="hsl(0,5%,46%)"/>
<text x="63.5" y="177.8" text-anchor="end" font-style="italic" font-size="25" fill="hsl(0,5%,46%)">fire</text>
<line x1="194.8" y1="206.7" x2="266.4" y2="57.9" stroke="hsl(0,5%,13%)" stroke-width="3.4" stroke-linecap="round"/><polygon points="271.2,48.0 269.8,61.8 261.2,57.7" fill="hsl(0,5%,13%)"/>
<text x="277.7" y="41.5" text-anchor="start" font-style="italic" font-size="25" fill="hsl(0,5%,13%)">darkness</text>
<line x1="194.8" y1="206.7" x2="301.4" y2="282.0" stroke="hsl(0,5%,13%)" stroke-width="3.4" stroke-linecap="round"/><polygon points="310.4,288.3 297.1,284.7 302.5,276.9" fill="hsl(0,5%,13%)"/>
<text x="322.7" y="304.0" text-anchor="start" font-style="italic" font-size="25" fill="hsl(0,5%,13%)">water</text>
<circle cx="194.8" cy="206.7" r="4.5" fill="hsl(0,5%,13%)"/>
</svg>